<?xml version="1.0" encoding="UTF-8" standalone="no"?>
<svg
   xmlns:dc="http://purl.org/dc/elements/1.1/"
   xmlns:cc="http://creativecommons.org/ns#"
   xmlns:rdf="http://www.w3.org/1999/02/22-rdf-syntax-ns#"
   xmlns:svg="http://www.w3.org/2000/svg"
   xmlns="http://www.w3.org/2000/svg"
   xmlns:sodipodi="http://sodipodi.sourceforge.net/DTD/sodipodi-0.dtd"
   xmlns:inkscape="http://www.inkscape.org/namespaces/inkscape"
   width="40px"
   height="60px"
   version="1.1"
   id="Layer_1"
   x="0px"
   y="0px"
   viewBox="0 0 512 512"
   style="enable-background:new 0 0 512 512;"
   xml:space="preserve"
   sodipodi:docname="logo-coral.svg"
   inkscape:version="0.92.5 (2060ec1f9f, 2020-04-08)"><metadata
   id="metadata13"><rdf:RDF><cc:Work
       rdf:about=""><dc:format>image/svg+xml</dc:format><dc:type
         rdf:resource="http://purl.org/dc/dcmitype/StillImage" /></cc:Work></rdf:RDF></metadata><defs
   id="defs11" /><sodipodi:namedview
   pagecolor="#ffffff"
   bordercolor="#666666"
   borderopacity="1"
   objecttolerance="10"
   gridtolerance="10"
   guidetolerance="10"
   inkscape:pageopacity="0"
   inkscape:pageshadow="2"
   inkscape:window-width="1920"
   inkscape:window-height="1018"
   id="namedview9"
   showgrid="false"
   inkscape:zoom="3.9333333"
   inkscape:cx="19.364407"
   inkscape:cy="30"
   inkscape:window-x="0"
   inkscape:window-y="34"
   inkscape:window-maximized="1"
   inkscape:current-layer="g6" />
        <g
   id="g6"
   transform="matrix(-0.00113096,-0.86687112,1.0073118,-0.00188879,3.2988871,453.99523)">
          <g
   id="g4"
   transform="translate(-7.5079888,-0.0084296)">
            <path
   d="m 511.981,118.509 c -0.135,-2.956 -1.892,-5.726 -4.565,-7.04 l -159.24,-79.62 c -3.776,-1.887 -8.363,-0.64 -10.664,2.898 L 229.916,200.282 174.503,114.391 c -0.796,-1.235 -1.945,-2.264 -3.259,-2.922 L 12.004,31.849 C 6.582,29.138 0,33.218 0,39.268 v 79.621 c 0,4.581 3.712,8.294 8.294,8.294 4.581,0 8.294,-3.712 8.294,-0.294 V 52.687 l 142.652,71.326 v 335.32 L 16.587,388.008 V 154.277 c 0,-4.581 -3.712,-8.294 -8.294,-8.294 -4.581,0 -8.294,3.712 -8.294,8.294 v 238.857 c 0,3.142 1.775,6.013 4.585,7.418 l 159.24,79.62 c 5.427,2.714 12.003,-1.375 12.003,-7.418 V 318.087 l 324.17,162.085 C 505.424,482.886 512,478.797 512,472.754 V 118.888 c 0,-0.128 -0.013,-0.252 -0.019,-0.379 z M 175.827,299.541 v -152.5 l 145.239,225.12 z M 495.413,459.335 356.073,389.664 464.649,202.671 c 2.299,-3.961 0.952,-9.037 -3.009,-11.337 -3.96,-2.298 -9.036,-0.953 -11.337,3.009 L 344.094,377.258 239.77,215.555 347.383,49.998 492.1,122.357 465.713,167.803 c -2.299,3.961 -0.952,9.037 3.009,11.337 3.958,2.297 9.035,0.953 11.337,-3.009 l 15.354,-26.443 z"
   id="path2"
   inkscape:connector-curvature="0"
   style="fill:#000000" />
          </g>
        </g>
      </svg>